<?xml version="1.0" encoding="UTF-8"?>
<svg id="Layer_1" data-name="Layer 1" xmlns="http://www.w3.org/2000/svg" width="34.325" height="35" viewBox="0 0 34.325 35">
  <defs>
    <style>
      .cls-1 {
        fill: #2ea9da;
      }
    </style>
  </defs>
  <path class="cls-1" d="m34.3249,17.5261c.0006-.2031-.0217-.4057-.066-.604-.0421-.6415-.316-1.2457-.7706-1.7001l-5.8237-5.8234c.0426-.0358.0847-.0727.1248-.1128l1.3539-1.3539c.7492-.7492.7492-1.964,0-2.7132l-1.3975-1.3974c-.7492-.7492-1.9639-.7492-2.7131,0l-1.3539,1.3539c-.0401.0401-.0771.0822-.1129.1248L19.0445.7791c-.5192-.5194-1.2002-.7791-1.8808-.7791h-.0025c-.6808,0-1.3614.2596-1.8809.7791L.8368,15.2221c-.4547.4544-.7285,1.0586-.7706,1.7001C.0221,17.1191,0,17.3203.0003,17.5221c0,.0014-.0003.0029-.0003.0044v7.7354c0,.0018.0003.0035.0003.0051.0002.0964.0056.1915.0156.2852.0035.0331.0102.0651.0149.0978.009.0634.0181.1265.0314.1884.0075.0349.0177.0689.0266.1034.0149.0584.0303.1164.0489.1732.0117.0356.0255.0704.0387.1055.0201.0536.0408.1066.0642.1586.0162.0361.0337.0715.0514.1068.0245.0488.0501.0967.0774.1437.0207.0357.0419.0709.0641.1056.0288.0449.0592.0883.0904.1312.0244.0336.0485.0671.0744.0995.0354.0444.0732.0866.1113.1288.0248.0272.0484.0553.0743.0817.0605.0616.124.1203.1901.176.0051.0043.0094.0092.0144.0134l6.8925,6.893c.4944.4943,1.1423.7413,1.7902.7413s1.2959-.2471,1.7903-.7413l5.7013-5.7018,5.7013,5.7018c.4944.4943,1.1423.7413,1.7903.7413s1.2958-.2471,1.7902-.7413l6.8925-6.893c.0046-.0039.0087-.0086.0134-.0125.0665-.056.1303-.1149.1911-.1769.026-.0264.0496-.0545.0743-.0817.0381-.0421.0758-.0843.1113-.1288.0259-.0324.05-.0659.0743-.0995.0314-.0429.0616-.0863.0904-.1312.0223-.0347.0435-.0699.0642-.1056.0272-.047.0528-.0949.0773-.1437.0178-.0353.0353-.0707.0515-.1068.0233-.0519.0441-.105.0642-.1586.0131-.0352.027-.0699.0387-.1055.0185-.0568.0338-.1148.0487-.1732.009-.0344.0191-.0685.0266-.1034.0135-.0622.0227-.1257.0316-.1894.0046-.0323.0113-.064.0147-.0965.0101-.0956.0159-.1924.0159-.2906v-7.7353h0s-.0001-.0003-.0001-.0004Zm-5.0174,6.7729l-4.6534,4.6539-3.9435-3.9438-3.548-3.5484-3.5481,3.5484-3.9433,3.9438-4.6535-4.6539v-6.1619l12.145-12.1445,12.145,12.1445v6.1619Z"/>
</svg>